# xmcd CD database file
#
# Track frame offsets:
#	150
#	12797
#	58830
#	106240
#	216212
#
# Disc length: 3101 seconds
#
# Revision: 0
# Processed by: cddbd v1.5PL3 Copyright (c) Steve Scherf et al.
# Submitted via: CDex 1.51
#
DISCID=3d0c1b05
DTITLE=World Saxophone Quartet - Point of no return
DYEAR=1977
DGENRE=Jazz
TTITLE0=Dar El Sudan
TTITLE1=Bajou Scetches
TTITLE2=Point of no return
TTITLE3=Scared Sheetless
TTITLE4=Hymn for the old year
EXTD=YEAR: 1977
EXTT0=
EXTT1=
EXTT2=
EXTT3=
EXTT4=
PLAYORDER=
